<svg xmlns="http://www.w3.org/2000/svg" width="1200" height="630" viewBox="0 0 1200 630">
  <rect width="1200" height="630" fill="#1976D2" />
  <text x="600" y="250" font-family="Arial, sans-serif" font-size="72" font-weight="bold" fill="white" text-anchor="middle">Ticket Bazaar</text>
  <text x="600" y="340" font-family="Arial, sans-serif" font-size="36" fill="white" text-anchor="middle">India's Trusted Ticket Resale Platform</text>
  
  <!-- Ticket Icon - Center and Enlarged -->
  <g transform="translate(540, 430) scale(5)">
    <path d="M2 9a3 3 0 0 1 0 6v2a2 2 0 0 0 2 2h16a2 2 0 0 0 2-2v-2a3 3 0 0 1 0-6V7a2 2 0 0 0-2-2H4a2 2 0 0 0-2 2Z" fill="none" stroke="white" stroke-width="2" stroke-linecap="round" stroke-linejoin="round"/>
    <path d="M13 5v2" fill="none" stroke="white" stroke-width="2" stroke-linecap="round" stroke-linejoin="round"/>
    <path d="M13 17v2" fill="none" stroke="white" stroke-width="2" stroke-linecap="round" stroke-linejoin="round"/>
    <path d="M13 11v2" fill="none" stroke="white" stroke-width="2" stroke-linecap="round" stroke-linejoin="round"/>
  </g>
</svg>
