<svg xmlns="http://www.w3.org/2000/svg" width="512" height="512" viewBox="0 0 512 512" role="img" aria-labelledby="title">
  <title>Ticket Bazaar app icon</title>
  <rect width="512" height="512" rx="112" fill="#1976D2"/>
  <path d="M82 190a58 58 0 0 1 0 116v56c0 31 25 56 56 56h236c31 0 56-25 56-56v-56a58 58 0 0 1 0-116v-40c0-31-25-56-56-56H138c-31 0-56 25-56 56v40Z" fill="none" stroke="#fff" stroke-width="34" stroke-linecap="round" stroke-linejoin="round"/>
  <path d="M270 96v50M270 208v96M270 366v50" fill="none" stroke="#fff" stroke-width="30" stroke-linecap="round"/>
</svg>
